<svg xmlns="http://www.w3.org/2000/svg" height="512" width="512"><path d="M111 504s-10.302-90.311 78.44-100.387h37.973V386.12s26.712 11.473 53.76 1.28l.854 16.213H326.4S403.673 411.328 399 504H111z" fill="#fff"/><path d="M398.262 505.587H113.746h-5.518l1.377-23.53c2.69-45.942 38.887-81.004 80.31-81.004h37.498v4.694H192.43c-39.924 0-74.81 33.748-77.403 77.97l-.956 16.323h283.44l-.53-16.323c-2.593-44.222-37.48-77.97-77.403-77.97H284.16v-4.694h37.68c41.423 0 77.62 35.062 80.31 81.004l1.377 23.53h-5.265z" fill="#3b434f"/><path d="M230.4 384.146v26.315c0 13.656 11.08 24.726 24.747 24.726s24.746-11.07 24.746-24.726V384.69a83.426 83.426 0 004.267-1.425v27.376c0 16.149-13.085 29.24-29.227 29.24-16.141 0-29.226-13.091-29.226-29.24v-28.186a83.846 83.846 0 004.693 1.692zM331.72 457.49l-12.085 25.206a2.56 2.56 0 11-4.617-2.213l11.672-24.345-9.12-15.797a2.56 2.56 0 114.434-2.56l9.813 16.998a2.558 2.558 0 01-.097 2.71zM178.362 457.514l12.15 25.284a2.576 2.576 0 003.434 1.206 2.565 2.565 0 001.208-3.426l-11.734-24.42 9.169-15.845a2.565 2.565 0 00-.942-3.508 2.577 2.577 0 00-3.516.94l-9.866 17.05a2.56 2.56 0 00.097 2.719z" fill="#3b434f"/><path d="M225.707 400.2h4.693v103.68h-4.693V400.2zM279.893 401.053h4.694v103.68h-4.694v-103.68zM243 451l12-13 13 13-7 7 11 45h-34l12-45-7-7z" fill="#3b434f"/><path fill-rule="evenodd" d="M269.7 503.69l-12.095-45.136 2.515-.754 1.667-1.772 12.792 47.738-4.88-.076zm-34.115-.533l12.626-46.91.816.7 2.56 1.706.844.085-11.977 44.495-4.869-.076z" fill="#3b434f"/><path fill-rule="evenodd" d="M284.146 463.788l-3.32 3.318-12.912-12.913c-2.492 3.958-6.892 6.594-11.914 6.594-5.225 0-9.776-2.853-12.205-7.08l-13.48 13.48-3.327-3.328 26.539-26.539 2.075-1.924 2.076 1.924 26.468 26.468zm-37.74-12.692a10.445 10.445 0 009.38 5.85c4.028 0 7.515-2.283 9.26-5.62l-9.435-9.435-9.205 9.205z" fill="#3b434f"/><path d="M256.215 116.467c53.078 0 94.972 49.6 93.61 109.198l-1.448 63.341c-1.283 56.146-42.532 100.527-92.162 100.527-49.631 0-90.88-44.38-92.163-100.527l-1.447-63.341c-1.363-59.597 40.532-109.198 93.61-109.198z" fill="#fff"/><path fill-rule="evenodd" d="M354.09 223.701l-1.518 65.915c-1.344 58.427-44.566 104.61-96.57 104.61-52.006 0-95.227-46.183-96.572-104.61l-1.517-65.915c-1.427-62.018 42.471-113.634 98.088-113.634s99.516 51.616 98.088 113.634zm-98.302-106.808c-52.352 0-93.674 49.214-92.33 108.345l1.428 62.847c1.266 55.708 41.95 99.742 90.902 99.742 48.953 0 89.637-44.034 90.903-99.742l1.428-62.847c1.343-59.131-39.978-108.345-92.33-108.345z" fill="#3b434f"/><path d="M302.08 327.326c-7.755 6.734-25.272 13.14-45.653 13.14-20.382 0-37.898-6.406-45.654-13.14 0 0-.793-2.183.371-3.348 1.186-1.185 3.043-.927 3.043-.927 7.747 6.738 21.85 12.296 42.24 12.296 20.389 0 34.493-5.558 42.24-12.296 0 0 1.895-.704 2.815.216 1.773 1.773.598 4.059.598 4.059zM242.347 350.707h27.306v4.266h-27.306v-4.266z" fill="#3b434f"/><path d="M157.807 233.313c-.012 0-1.047-.826-3.003-1.442a14.109 14.109 0 00-3.578-.623 14.539 14.539 0 00-2.181.067c-.758.08-1.54.226-2.327.452-3.15.906-6.365 3.108-8.253 7.652-.948 2.272-1.573 5.13-1.738 8.707a43.67 43.67 0 00-.036 2.819c.018.986.067 2.018.149 3.1a76.36 76.36 0 00.898 7.095c-.01-.003-.41 7.77 2.368 16.7 2.613 8.733 8.886 19.46 20.467 22.524-1.332-22.179-1.373-44.774-2.766-67.05z" fill="#fff"/><path d="M159.128 234.207s-20.177-6.251-19.466 14.491c0 0 3.003 30.077 4.308 32.85 0 0 7.924 17.511 21 18.287 12.782.759 0 0 0 0l.16 5.645s-22.985-2.947-27.424-29.435l-3.504-24.062s-2.72-31.845 23.67-23.748c25.708 7.888 0 0 0 0l1.256 5.972" fill="#3b434f"/><path d="M152.468 275.995s-1.129.853-2.099.853c-.97 0-2.085-.853-2.085-.853l-2.082-20.983s2.872-10.333 15.063-4.873l.289 6s-10.696-3.793-10.475.93c.213 4.547 1.39 18.926 1.39 18.926z" fill="#3b434f"/><path d="M353.813 233.362c.012 0 1.053-.826 3.017-1.441.982-.307 2.202-.56 3.593-.622a14.683 14.683 0 012.191.066c.76.08 1.546.226 2.337.452 3.165.905 6.393 3.106 8.29 7.647.951 2.27 1.58 5.127 1.745 8.7.042.894.055 1.833.036 2.818a54.18 54.18 0 01-.15 3.098 75.937 75.937 0 01-.901 7.09c.01-.003.412 7.765-2.38 16.69-2.623 8.726-8.923 19.445-20.556 22.508 1.338-22.164 1.38-44.744 2.778-67.006z" fill="#fff"/><path d="M352.483 234.256s20.264-6.248 19.551 14.48c0 0-3.017 30.057-4.327 32.828 0 0-7.959 17.5-21.093 18.275-12.837.758 0 0 0 0l-.16 5.641s23.086-2.945 27.545-29.415l3.519-24.046s2.732-31.823-23.773-23.732c-25.822 7.883 0 0 0 0l-1.262 5.969" fill="#3b434f"/><path d="M359.171 276.015s1.134.853 2.109.853c.974 0 2.094-.853 2.094-.853l2.092-20.969s-2.886-10.326-15.13-4.869l-.29 5.996s10.743-3.79 10.52.93c-.213 4.543-1.395 18.912-1.395 18.912zM283.327 226.44s25.545-14.604 43.793 1.487l4.827.748s-6.183-22.497-51.2-7.869L282 225m1 0s25.987-14.926 43.12 3.927l8.827-.252s-11.009-24.032-56.2-8.869L283 226M228.438 226.526s-25.459-14.476-43.646 1.472l-4.811.742s6.162-22.298 51.029-7.8l-1.25 4.157m-.996 0s-25.9-14.794-42.976 3.893l-8.797-.25s10.972-23.82 56.012-8.79l-4.239 6.139" fill="#3b434f"/><path d="M350.588 233.8s39.388-103.344-81.898-126.887c0 0-25.387-1.374-45.215-25.006 0 0-14.165 19.418-5.971 34.268 0 0-10.427 9.096-38.39 1.853 0 0-4.233 9.04-.853 19.45 0 0-35.174 15.208-18.412 83.239.16.651.326 1.308.496 1.969 0 0 15.05-60.16 25.594-61.128 0 0 56.813 32.617 104.932-2.778 0 0 23.758 31.697 52.892 33.342 0 0 5.27 20.441 6.825 41.678z" fill="#c1bfbd"/><path fill-rule="evenodd" d="M353.28 234.653c-1.184 3.213-5.12 2.134-5.12 2.134-1.555-21.237-6.4-41.814-6.4-41.814-29.518-3.719-51.627-32-51.627-32-47.834 32.875-104.106 1.28-104.106 1.28-11.299 9.368-22.614 58.88-22.614 58.88-.17-.661-5.812.652-5.973 0-16.762-68.03 17.493-87.04 17.493-87.04-3.379-10.41 2.134-21.333 2.134-21.333 27.963 7.243 36.693.853 36.693.853-7.393-18.517 8.96-37.546 8.96-37.546 19.828 23.632 46.933 26.026 46.933 26.026 111.549 22.354 91.536 109.102 83.627 130.56zM267.093 109.64s-22.83-1.242-43.093-22.613c0 0-11.607 15.443-3.413 30.293 0 0-11.717 11.51-39.68 4.267 0 0-2.212 5.794 0 16.64 0 0-31.36 16.19-20.48 71.253.13.658-.17-.235 0 .427 0 0 13.117-50.808 25.173-51.2 0 0 58.862 33.324 106.24-3.84 0 0 25.052 33.341 54.187 34.986 0 0 2.527 7.146 5.546 28.16 0 0 25.552-87.405-84.48-108.373z" fill="#3b434f"/><path opacity=".2" fill-rule="evenodd" d="M231.092 104.947c.782.015.78.547 1.009 1.101.34.827.646 1.67 1.04 2.456.599 1.191 1.212 2.373 1.924 3.462.598.916 1.248 1.79 1.892 2.66.372.502.822.947 1.198 1.448.15.2.351.364.505.566l.158.142c.193.255.438.454.63.708l.631.614c.328.328.636.695 1.01.976l.236.252c.296.223.538.5.835.724l.142.157c.43.323.803.719 1.23 1.039.694.52 1.35 1.071 2.066 1.574.474.333.942.703 1.419 1.038.849.597 1.746 1.132 2.617 1.7.53.346 1.098.61 1.64.944 1.533.947 3.212 1.755 4.856 2.582.531.267 1.06.484 1.609.724.35.153.728.333 1.072.503.19.094.373.136.567.22.42.184.874.38 1.293.567.388.174.767.288 1.167.44.432.166.89.372 1.325.536.756.286 1.522.537 2.27.818.778.293 1.556.487 2.35.756 1.538.52 3.175.904 4.777 1.385.48.144.979.212 1.45.346.236.067.54.054.742.157.081.042.174.131.252.19.125.093.222.25.315.377.15.204.308.405.426.645.122.25.156.596.22.882.053.229-.02.516-.062.676-.036.135-.024.228-.063.362a2.898 2.898 0 01-.458.945c-.207.267-.717.274-1.103.173-.677-.177-1.419-.253-2.082-.44-.141-.041-.254-.023-.394-.064-.768-.222-1.607-.349-2.365-.566-.173-.05-.319-.043-.489-.095-.598-.182-1.22-.285-1.829-.472-1.525-.468-3.086-.856-4.54-1.385-.34-.124-.657-.187-.994-.315-2.387-.9-4.757-1.767-6.938-2.864-.574-.289-1.143-.517-1.703-.819a86.567 86.567 0 01-4.635-2.675c-.198-.123-.39-.28-.584-.41a88.603 88.603 0 01-2.554-1.778c-.851-.61-1.61-1.342-2.444-1.967-.176-.132-.325-.305-.505-.44l-.157-.174c-.195-.147-.346-.344-.536-.488-.457-.345-.843-.794-1.246-1.196-.38-.38-.793-.75-1.12-1.18l-.22-.205c-.212-.28-.486-.51-.694-.787-.364-.482-.792-.917-1.151-1.4-.447-.602-.908-1.198-1.34-1.81-.433-.614-.81-1.248-1.214-1.89-1.098-1.737-1.99-3.632-2.823-5.65-.302-.73-.505-1.512-.757-2.281-.173-.53-.257-1.1-.41-1.637-.04-.14-.025-.25-.063-.394-.08-.306-.173-.689-.063-1.007a.81.81 0 01.395-.393c.099-.035.195-.009.268-.063zm-7.742 23.608c.56.003.811.415 1.056.74.254.335.596.605.852.944l.63.63c.144.188.323.337.49.503.17.17.324.356.52.503l.567.567c.194.147.345.344.536.488.59.445 1.094 1.005 1.687 1.448.629.469 1.22.996 1.86 1.448.84.592 1.678 1.193 2.54 1.762.44.292.89.536 1.34.819.343.216.7.464 1.056.66 1.478.819 2.975 1.621 4.51 2.393 1.215.611 2.497 1.106 3.752 1.668.387.174.767.29 1.167.441.903.343 1.854.693 2.775 1.039.871.327 1.797.551 2.68.85.145.048.268.043.41.094.457.164.975.267 1.451.41.24.071.477.07.71.157.51.19 1.153.764 1.34 1.275.323.885-.035 1.892-.442 2.47-.122.175-.304.462-.52.536-.34.116-.698-.006-1.01-.095-.401-.115-.786-.132-1.182-.252-.73-.22-1.49-.341-2.223-.566-1.535-.472-3.066-.895-4.525-1.448-3.38-1.28-6.498-2.782-9.366-4.564-1.19-.74-2.32-1.574-3.437-2.393-.398-.291-.759-.65-1.151-.944-.539-.403-.997-.888-1.53-1.29l-.173-.19c-.11-.096-.228-.18-.331-.283l-.253-.267c-.2-.152-.36-.343-.536-.52-.171-.17-.357-.324-.504-.519l-.347-.33c-.387-.51-.876-.932-1.262-1.448-.09-.122-.224-.225-.315-.347-.37-.492-.78-.96-1.135-1.463-.405-.573-.826-1.15-1.198-1.747-.147-.235-.26-.476-.41-.709-.166-.255-.292-.523-.442-.802-.089-.166-.22-.35-.284-.535-.065-.19-.085-.555.016-.724.07-.116.232-.298.363-.347.098-.036.195-.008.268-.062zm-10.596 11.489c.633.007.793.474 1.056.85.425.603.914 1.16 1.356 1.747.353.468.813.854 1.167 1.322l.41.393c.196.26.497.56.757.755l.158.174c.129.128.262.25.41.362l.205.22c.35.264.643.605.993.866.836.622 1.632 1.3 2.491 1.904 1.862 1.309 3.914 2.402 6.023 3.462.69.347 1.423.604 2.113.945.294.145.596.218.899.346.827.35 1.714.655 2.57.976 1.185.444 2.442.722 3.658 1.133.426.144.88.208 1.293.346.367.123.742.143 1.12.252.747.217 1.579.337 2.349.535.444.115.895.142 1.324.252.48.123.983.137 1.451.252l.315.031c.481.122 1.04.136 1.53.252.209.05.389.014.599.063.683.16 1.464.127 2.16.283.199.045.406.023.583.063h.19c.24.054.545.041.788.095h.205c.397.087.877.038 1.277.126h.268c.51.111 1.123.013 1.64.125l.6.016c.112.025.292-.013.425.016.352.076.805.009 1.167.063.213.032.472-.025.662.016.168.036.388-.017.536.015h1.23c.97 0 1.918-.027 2.854-.031.443-.002.926-.1 1.293.031.207.074.399.256.567.378.38.275.736.667.915 1.133.055.142.05.268.095.425.071.253.174.65.094.992-.052.222-.08.491-.158.708-.12.334-.443.432-.82.52l-.41.015c-.582.127-1.29.015-1.876.142-.112.024-.27-.005-.362.015l-.663.016c-.214.046-.483-.02-.725.032-.202.043-.449.031-.678.031h-.252c-.195.042-.469.032-.678.032h-.915c-.284.06-.679.015-.993.015-.26 0-.589.034-.82-.015h-.536c-.373 0-.741 0-1.088-.032h-.536c-.306-.066-.706.003-1.01-.063h-.362c-.222-.048-.522-.015-.741-.063h-.315c-.169-.037-.415-.026-.584-.063h-.252c-.584-.129-1.257-.06-1.829-.189l-.473-.031c-.742-.169-1.564-.143-2.286-.315-.197-.047-.358-.015-.552-.063-.672-.164-1.412-.21-2.066-.377-.108-.028-.176-.004-.284-.032-.309-.08-.671-.133-.977-.22-.142-.04-.252-.022-.394-.063-1.063-.306-2.17-.466-3.217-.787-1.854-.568-3.728-1.077-5.408-1.826-.38-.17-.76-.268-1.135-.44-.664-.306-1.35-.584-2.003-.913a84.245 84.245 0 01-3.011-1.606c-.696-.386-1.365-.857-2.019-1.29a67.847 67.847 0 01-1.576-1.07c-.514-.361-.993-.776-1.498-1.15-.514-.38-.955-.857-1.467-1.243-.194-.146-.358-.389-.552-.535-.477-.36-.872-.84-1.292-1.259-1.796-1.792-3.32-3.851-4.683-6.075-.315-.513-.544-1.049-.82-1.605-.126-.254-.258-.596-.126-.945.042-.11.267-.336.378-.377.091-.035.199-.011.268-.063zm104.35 15.518c.573.006.75.387.992.724.24.332.512.644.757.976.522.703 1.176 1.303 1.703 1.998.184.243.445.431.63.677l.222.205c.256.338.6.615.898.913l.773.77c.405.307.733.736 1.135 1.04.23.173.42.396.647.566.745.56 1.423 1.21 2.176 1.763 1.134.832 2.27 1.672 3.453 2.455 1.778 1.178 3.666 2.241 5.581 3.274 1.088.586 2.229 1.084 3.343 1.637.396.196.812.343 1.198.535.144.07.283.086.426.157.617.305 1.304.536 1.94.818.163.073.305.094.472.158.62.234 1.274.473 1.908.708.357.132.78.183 1.104.362.818.452 1.572 1.421 1.151 2.707-.15.458-.404.814-.662 1.165-.178.242-.4.338-.725.44-.08.025-.434-.1-.505-.126-.435-.157-.871-.232-1.309-.377-2.259-.751-4.428-1.546-6.512-2.455-3.372-1.473-6.394-3.351-9.24-5.352-.827-.581-1.574-1.27-2.38-1.872-.237-.177-.44-.403-.678-.583l-.142-.157c-.321-.242-.58-.546-.899-.787l-.426-.44c-.16-.122-.285-.27-.425-.41-.141-.14-.289-.264-.41-.425l-.3-.283a5.77 5.77 0 01-.52-.583l-.284-.283c-.203-.268-.463-.49-.662-.755-.521-.692-1.088-1.332-1.593-2.046-.453-.642-.95-1.278-1.372-1.952a39.399 39.399 0 01-1.513-2.675c-.211-.405-.45-.913-.6-1.354-.065-.196-.085-.547.016-.724.07-.12.229-.296.363-.346.091-.035.199-.011.268-.063z" fill="#3b434f"/><path fill-rule="evenodd" d="M263.893 274.333h1.494c3.087 4.193 4.343 10.637 5.973 16.214.505 1.728.015 4.751-.427 5.973-1.617 4.476-6.697 4.395-10.88 6.4-1.123.538-1.958 1.468-3.413 1.707-.948-.836-2.093-1-2.56-2.347-1.152-1.587.333-2.578 1.493-3.2 2.107-1.13 8.608-2.243 9.387-4.267.963-1.095.323-4.39 0-5.546-.827-2.962-1.223-5.435-2.347-8.107-.746-1.775-2.056-3.646-1.28-5.76.644-.276 2.034-.59 2.56-1.067z" fill="#3b434f"/><path d="M209.067 238.067a8.533 8.533 0 110 17.066 8.533 8.533 0 010-17.066zM303.787 238.067a8.533 8.533 0 110 17.066 8.533 8.533 0 010-17.066z" fill="#3b434f"/><path d="M307.627 269.64c5.89 0 10.666 4.776 10.666 10.667 0 5.89-4.775 10.666-10.666 10.666s-10.667-4.775-10.667-10.666 4.776-10.667 10.667-10.667z" fill="#f5f3ef"/><path d="M204.373 269.64c5.891 0 10.667 4.776 10.667 10.667 0 5.89-4.776 10.666-10.667 10.666-5.89 0-10.666-4.775-10.666-10.666s4.775-10.667 10.666-10.667z" fill="#f4f3ef"/></svg>