<svg xmlns="http://www.w3.org/2000/svg" height="512" width="512"><path d="M112 504s-10.302-90.311 78.44-100.387h37.973V386.12s26.712 11.473 53.76 1.28l.854 16.213H327.4S404.673 411.328 400 504H112z" fill="#fff"/><path d="M399.262 505.587H114.746h-5.518l1.377-23.53c2.69-45.942 38.887-81.004 80.31-81.004h31.525v4.694h-29.01c-39.924 0-74.81 33.748-77.403 77.97l-.956 16.323h283.44l-.53-16.323c-2.593-44.222-37.48-77.97-77.403-77.97h-38.831v-4.694h41.092c41.424 0 77.621 35.062 80.31 81.004l1.378 23.53h-5.265z" fill="#3b434f"/><path d="M232.68 384.146v26.315c0 13.656 11.08 24.726 24.747 24.726s24.746-11.07 24.746-24.726V384.69a83.426 83.426 0 004.267-1.425v27.376c0 16.149-13.085 29.24-29.227 29.24-16.141 0-29.226-13.091-29.226-29.24v-28.186a83.846 83.846 0 004.693 1.692zM227.773 434.76a2.773 2.773 0 012.774 2.773v41.814a2.773 2.773 0 11-5.547 0v-41.814a2.773 2.773 0 012.773-2.773zM286.013 434.333A2.987 2.987 0 01289 437.32v26.027a2.987 2.987 0 11-5.973 0V437.32a2.987 2.987 0 012.986-2.987z" fill="#3b434f"/><path d="M227.773 479.133c.825 0 1.494.669 1.494 1.494v10.666a1.493 1.493 0 11-2.987 0v-10.666c0-.825.669-1.494 1.493-1.494zM286.227 463.347c.824 0 1.493.668 1.493 1.493v10.667a1.493 1.493 0 11-2.987 0V464.84c0-.825.669-1.493 1.494-1.493z" fill="#3b434f"/><path d="M211.766 373.646l-27.024 6.205s-33.093 7.496-11.076 29.8c22.016 22.303 78.64 26.242 78.64 26.242s-14.97-7.09-21.333-17.066l-2.133-35.84-17.074-9.34z" fill="#f5f3ef"/><path fill-rule="evenodd" d="M253.16 438.027c-1.677 2.122-48.827.663-81.493-27.734-23.653-20.56 11.946-32.426 11.946-32.426l26.027-5.974 22.613 11.52 1.707 34.56c9.52 14.927 21.9 16.637 19.2 20.054zm-23.467-18.347l-2.56-36.267-13.653-7.68-26.027 6.4s-31.525 6.465-11.52 25.174c21.59 20.19 61.529 25.609 65.707 25.173 4.33-.451-2.427 2.126-11.947-12.8z" fill="#3b434f"/><path d="M303.06 374.651l27.039 6.224s33.113 7.519 11.083 29.889c-22.03 22.37-78.688 26.321-78.688 26.321s14.98-7.112 21.346-17.118l2.135-35.947 17.084-9.369z" fill="#f5f3ef"/><path fill-rule="evenodd" d="M261.64 438.798c1.678 2.129 48.856.665 81.542-27.816 23.667-20.623-11.954-32.524-11.954-32.524l-26.042-5.991-22.627 11.554-1.707 34.664c-9.525 14.97-21.913 16.686-19.212 20.113zm23.48-18.402l2.562-36.375 13.662-7.703 26.042 6.42s31.543 6.483 11.527 25.248c-21.602 20.251-61.565 25.686-65.746 25.249-4.333-.453 2.429 2.132 11.954-12.839z" fill="#3b434f"/><path d="M259.215 116.467c53.078 0 94.972 49.6 93.61 109.198l-1.448 63.341c-1.283 56.146-42.532 100.527-92.162 100.527-49.631 0-90.88-44.38-92.163-100.527l-1.447-63.341c-1.363-59.597 40.532-109.198 93.61-109.198z" fill="#fff"/><path fill-rule="evenodd" d="M357.09 223.701l-1.518 65.915c-1.344 58.427-44.566 104.61-96.57 104.61-52.006 0-95.227-46.183-96.572-104.61l-1.517-65.915c-1.427-62.018 42.471-113.634 98.088-113.634s99.516 51.616 98.088 113.634zm-98.302-106.808c-52.352 0-93.674 49.214-92.33 108.345l1.428 62.847c1.266 55.708 41.95 99.742 90.902 99.742 48.953 0 89.637-44.034 90.903-99.742l1.428-62.847c1.343-59.131-39.978-108.345-92.33-108.345z" fill="#3b434f"/><path fill-rule="evenodd" d="M348.524 326.925c-1.262 5.97-17.846 60.098-14.846 36.667 3-23.43-28.82 21.29-28.82 21.29-5.879 6.042-29.692 20.109-29.692 20.109v-5.915l-17.466 7.097-7.86-7.097-.873 7.097c-2.339-3.465-49.779-35.484-49.779-35.484s8.144 14.493 1.747 7.097a28.076 28.076 0 01-.703-.847c-6.47-8.104-16.764-28.723-16.764-28.723l-1.746 14.193c-15.435-30.003-14.846-67.42-14.846-67.42l-2.596-78.141h6.987l2.595 55.668 11.353 18.924c7.341 10.733 27.073 5.915 27.073 5.915 57.022 39.565 93.444-2.366 93.444-2.366s24.703 5.482 32.313 2.366c7.61-3.116 8.708-80.617 8.708-80.617h6.114s-3.08 104.217-4.343 110.187zm-40.95 6.001c-1.254-15.041-10.407-13.766-10.407-13.766-16.272 4.745-29.045 7.38-39.024 8.72v-.098c-9.91-1.329-22.593-3.943-38.75-8.649 0 0-9.09-1.265-10.334 13.654 0 0-3.65 11.533 8.61 17.92l15.501 8.533s10.593 3.327 10.334-9.387c0 0-1.078-1.801 5.166-3.413h9.473v.28h9.539c6.289 1.626 5.203 3.506 5.203 3.506-.26 12.818 10.407 9.464 10.407 9.464l15.61-8.667c12.347-6.44 8.671-18.097 8.671-18.097z" fill="#3b434f"/><path d="M305.08 327.326c-7.755 6.734-25.272 13.14-45.653 13.14-20.382 0-37.898-6.406-45.654-13.14 0 0-.793-2.183.371-3.348 1.186-1.185 3.043-.927 3.043-.927 7.747 6.738 21.85 12.296 42.24 12.296 20.389 0 34.493-5.558 42.24-12.296 0 0 1.895-.704 2.815.216 1.773 1.773.598 4.059.598 4.059zM245.347 350.707h27.306v4.266h-27.306v-4.266z" fill="#3b434f"/><path d="M160.807 233.313c-.012 0-1.047-.826-3.003-1.442a14.109 14.109 0 00-3.578-.623 14.539 14.539 0 00-2.181.067c-.758.08-1.54.226-2.327.452-3.15.906-6.365 3.108-8.253 7.652-.948 2.272-1.573 5.13-1.738 8.707a43.67 43.67 0 00-.036 2.819c.018.986.067 2.018.149 3.1a76.36 76.36 0 00.898 7.095c-.01-.003-.41 7.77 2.368 16.7 2.613 8.733 8.886 19.46 20.467 22.524-1.332-22.179-1.373-44.774-2.766-67.05z" fill="#fff"/><path d="M162.128 234.207s-20.177-6.251-19.466 14.491c0 0 3.003 30.077 4.308 32.85 0 0 7.924 17.511 21 18.287 12.782.759 0 0 0 0l.16 5.645s-22.985-2.947-27.424-29.435l-3.504-24.062s-2.72-31.845 23.67-23.748c25.708 7.888 0 0 0 0l1.256 5.972" fill="#3b434f"/><path d="M155.468 275.995s-1.129.853-2.099.853c-.97 0-2.085-.853-2.085-.853l-2.082-20.983s2.872-10.333 15.063-4.873l.289 6s-10.696-3.793-10.475.93c.213 4.547 1.39 18.926 1.39 18.926z" fill="#3b434f"/><path d="M356.813 233.362c.012 0 1.053-.826 3.017-1.441.982-.307 2.202-.56 3.593-.622a14.683 14.683 0 012.191.066c.76.08 1.546.226 2.337.452 3.165.905 6.393 3.106 8.29 7.647.951 2.27 1.58 5.127 1.745 8.7.042.894.055 1.833.036 2.818a54.18 54.18 0 01-.15 3.098 75.937 75.937 0 01-.901 7.09c.01-.003.412 7.765-2.38 16.69-2.623 8.726-8.923 19.445-20.556 22.508 1.338-22.164 1.38-44.744 2.778-67.006z" fill="#fff"/><path d="M355.483 234.256s20.264-6.248 19.551 14.48c0 0-3.017 30.057-4.327 32.828 0 0-7.959 17.5-21.093 18.275-12.837.758 0 0 0 0l-.16 5.641s23.086-2.945 27.545-29.415l3.519-24.046s2.732-31.823-23.773-23.732c-25.822 7.883 0 0 0 0l-1.262 5.969" fill="#3b434f"/><path d="M362.171 276.015s1.134.853 2.109.853c.974 0 2.094-.853 2.094-.853l2.092-20.969s-2.886-10.326-15.13-4.869l-.29 5.996s10.743-3.79 10.52.93c-.213 4.543-1.395 18.912-1.395 18.912z" fill="#3b434f"/><path fill-rule="evenodd" d="M266.893 274.333h1.494c3.087 4.193 4.343 10.637 5.973 16.214.505 1.728.015 4.751-.427 5.973-1.617 4.476-6.697 4.395-10.88 6.4-1.123.538-1.958 1.468-3.413 1.707-.948-.836-2.093-1-2.56-2.347-1.152-1.587.333-2.578 1.493-3.2 2.107-1.13 8.608-2.243 9.387-4.267.963-1.095.323-4.39 0-5.546-.827-2.962-1.223-5.435-2.347-8.107-.746-1.775-2.056-3.646-1.28-5.76.644-.276 2.034-.59 2.56-1.067z" fill="#3b434f"/><path d="M207.8 241.48h5.973a5.973 5.973 0 110 11.947H207.8a5.973 5.973 0 110-11.947zM305.08 241.48h5.973a5.973 5.973 0 110 11.947h-5.973a5.973 5.973 0 110-11.947z" fill="#3b434f"/><path d="M310.627 269.64c5.89 0 10.666 4.776 10.666 10.667 0 5.89-4.775 10.666-10.666 10.666s-10.667-4.775-10.667-10.666 4.776-10.667 10.667-10.667zM207.373 269.64c5.891 0 10.667 4.776 10.667 10.667 0 5.89-4.776 10.666-10.667 10.666-5.89 0-10.666-4.775-10.666-10.666s4.775-10.667 10.666-10.667z" fill="#edf1f1"/><path fill-rule="evenodd" d="M351.94 228.88c-.577 4.93-1.084 10.962-2.15 16.356-3.188 16.128-17.047 31.071-40.71 32.774-23.664 1.703-43.804-10.21-44.984-26.608-.2-2.78-.736-5.9-1.147-8.934-3.349-1.857-6.8-1.86-10.354-.013-.416 3.102-.971 6.304-1.176 9.151-1.184 16.453-21.387 28.405-45.126 26.697-23.738-1.709-37.64-16.701-40.838-32.883-1.07-5.411-1.578-11.464-2.157-16.41l-3.489-.251.49-6.81.852.062 21.588 1.553 18.223 1.312 18.257 1.313 28.437 2.047c1.961.248 3.265 1.089 4.105 2.345 4.084 1.787 8.05 1.794 11.899.02.832-1.336 2.153-2.235 4.187-2.493l28.347-2.04 18.2-1.309 18.166-1.307 21.52-1.548.849-.061.488 6.786-3.477.25zm-111.92 7.357l-55.732-4.01c-7.289-.629-9.873 7.563-10.322 13.806-.947 13.161 13.718 24.942 32.756 26.312 19.038 1.37 35.239-8.19 36.186-21.351.45-6.243 2.488-10.099-2.888-14.757zm101.285 9.61c-.448-6.223-3.023-14.387-10.29-13.76l-55.556 3.996c-5.36 4.643-3.327 8.486-2.879 14.708.944 13.119 17.094 22.646 36.072 21.28 18.978-1.365 33.597-13.106 32.653-26.225z" fill="#3b444f"/><path d="M166.017 261.107s11.87-51.996 22.198-66.219c10.33-14.223 19.267-17.625 23.906-18.06 4.64-.435 41.172 10.365 91.355-2.006 0 0 19.788-.79 28.175 19.063 0 0 17.685 31.637 20.491 63.208h3.415s7.238-55.342 4.27-88.291c-2.969-32.949-46.105-49.162-46.105-49.162l9.391-7.024s-21.926-6.778-30.736-3.01l6.83-14.046s-44.25.088-69.156 20.066l.854-10.033s-87.79 13.463-69.157 153.507l4.269 2.007z" fill="#3b434f"/></svg>