<svg xmlns="http://www.w3.org/2000/svg" height="512" width="512"><path d="M117.36 502s-6.615-89.988 78.08-98.387h37.973V386.12s26.712 11.473 53.76 1.28l.854 16.213H332.4s75.985 2.985 72.533 99.24L117.36 502z" fill="#fff"/><path d="M404.675 505.587H120.16h-5.518l1.377-23.53c2.69-45.942 38.887-81.004 80.31-81.004h31.525v4.694h-29.01c-39.923 0-74.81 33.748-77.402 77.97l-.957 16.323h283.44l-.53-16.323c-2.593-44.222-37.48-77.97-77.403-77.97H287.16v-4.694h41.093c41.423 0 77.62 35.062 80.31 81.004l1.377 23.53h-5.265z" fill="#3b434f"/><path d="M257.72 453.96c-22.857 0-41.387-18.53-41.387-41.387 0-4 .579-7.861 1.637-11.52h12.017v4.694h-8.748a37.067 37.067 0 00-.639 6.826c0 20.501 16.62 37.12 37.12 37.12 20.5 0 37.12-16.619 37.12-37.12 0-2.333-.224-4.613-.639-6.826h-8.748v-4.694h12.017a41.377 41.377 0 011.637 11.52c0 22.858-18.53 41.387-41.387 41.387z" fill="#3b434f"/><path d="M233.4 384.146v26.315c0 13.656 11.08 24.726 24.747 24.726s24.746-11.07 24.746-24.726V384.69a83.426 83.426 0 004.267-1.425v27.376c0 16.149-13.085 29.24-29.227 29.24-16.141 0-29.226-13.091-29.226-29.24v-28.186a83.846 83.846 0 004.693 1.692z" fill="#3b434f"/><path d="M259.215 116.467c53.078 0 94.972 49.6 93.61 109.198l-1.448 63.341c-1.283 56.146-42.532 100.527-92.162 100.527-49.631 0-90.88-44.38-92.163-100.527l-1.447-63.341c-1.363-59.597 40.532-109.198 93.61-109.198z" fill="#fff"/><path fill-rule="evenodd" d="M357.09 223.701l-1.518 65.915c-1.344 58.427-44.566 104.61-96.57 104.61-52.006 0-95.227-46.183-96.572-104.61l-1.517-65.915c-1.427-62.018 42.471-113.634 98.088-113.634s99.516 51.616 98.088 113.634zm-98.302-106.808c-52.352 0-93.674 49.214-92.33 108.345l1.428 62.847c1.266 55.708 41.95 99.742 90.902 99.742 48.953 0 89.637-44.034 90.903-99.742l1.428-62.847c1.343-59.131-39.978-108.345-92.33-108.345z" fill="#3b434f"/><path opacity=".059" fill-rule="evenodd" d="M354.427 234.653l-4.267 69.974s-18.95 80.77-92.16 90.334v.119c-.144-.018-.283-.041-.427-.06-.143.019-.282.042-.426.06v-.119c-73.21-9.563-92.16-90.334-92.16-90.334l-4.267-69.974c18.998 84.327 34.987 89.6 34.987 89.6-3.236-25.57 23.04-23.04 23.04-23.04 16.014 2.705 28.762 4.013 38.826 4.501 10.065-.488 22.813-1.796 38.827-4.5 0 0 26.276-2.532 23.04 23.04 0 0 15.989-5.274 34.987-89.6zm-47.444 98.273c-1.242-15.041-10.312-13.766-10.312-13.766-16.125 4.745-28.782 7.38-38.671 8.72v-.098c-9.82-1.329-22.388-3.943-38.4-8.649 0 0-9.007-1.265-10.24 13.654 0 0-3.617 14.946 8.533 21.333l15.36 16.213s10.497 3.327 10.24-9.386c0 0-1.068-9.482 5.12-11.094H258v.281h9.453c6.232 1.625 5.156 11.185 5.156 11.185-.258 12.819 10.312 9.464 10.312 9.464l15.469-16.347c12.235-6.44 8.593-21.51 8.593-21.51z" fill="#3b434f"/><path d="M305.08 327.326c-7.755 6.734-25.272 13.14-45.653 13.14-20.382 0-37.898-6.406-45.654-13.14 0 0-.793-2.183.371-3.348 1.186-1.185 3.043-.927 3.043-.927 7.747 6.738 21.85 12.296 42.24 12.296 20.389 0 34.493-5.558 42.24-12.296 0 0 1.895-.704 2.815.216 1.773 1.773.598 4.059.598 4.059zM245.347 350.707h27.306v4.266h-27.306v-4.266z" fill="#3b434f"/><path d="M160.807 233.313c-.012 0-1.047-.826-3.003-1.442a14.109 14.109 0 00-3.578-.623 14.539 14.539 0 00-2.181.067c-.758.08-1.54.226-2.327.452-3.15.906-6.365 3.108-8.253 7.652-.948 2.272-1.573 5.13-1.738 8.707a43.67 43.67 0 00-.036 2.819c.018.986.067 2.018.149 3.1a76.36 76.36 0 00.898 7.095c-.01-.003-.41 7.77 2.368 16.7 2.613 8.733 8.886 19.46 20.467 22.524-1.332-22.179-1.373-44.774-2.766-67.05z" fill="#fff"/><path d="M162.128 234.207s-20.177-6.251-19.466 14.491c0 0 3.003 30.077 4.308 32.85 0 0 7.924 17.511 21 18.287 12.782.759 0 0 0 0l.16 5.645s-22.985-2.947-27.424-29.435l-3.504-24.062s-2.72-31.845 23.67-23.748c25.708 7.888 0 0 0 0l1.256 5.972" fill="#3b434f"/><path d="M155.468 275.995s-1.129.853-2.099.853c-.97 0-2.085-.853-2.085-.853l-2.082-20.983s2.872-10.333 15.063-4.873l.289 6s-10.696-3.793-10.475.93c.213 4.547 1.39 18.926 1.39 18.926z" fill="#3b434f"/><path d="M356.813 233.362c.012 0 1.053-.826 3.017-1.441.982-.307 2.202-.56 3.593-.622a14.683 14.683 0 012.191.066c.76.08 1.546.226 2.337.452 3.165.905 6.393 3.106 8.29 7.647.951 2.27 1.58 5.127 1.745 8.7.042.894.055 1.833.036 2.818a54.18 54.18 0 01-.15 3.098 75.937 75.937 0 01-.901 7.09c.01-.003.412 7.765-2.38 16.69-2.623 8.726-8.923 19.445-20.556 22.508 1.338-22.164 1.38-44.744 2.778-67.006z" fill="#fff"/><path d="M355.483 234.256s20.264-6.248 19.551 14.48c0 0-3.017 30.057-4.327 32.828 0 0-7.959 17.5-21.093 18.275-12.837.758 0 0 0 0l-.16 5.641s23.086-2.945 27.545-29.415l3.519-24.046s2.732-31.823-23.773-23.732c-25.822 7.883 0 0 0 0l-1.262 5.969" fill="#3b434f"/><path d="M362.171 276.015s1.134.853 2.109.853c.974 0 2.094-.853 2.094-.853l2.092-20.969s-2.886-10.326-15.13-4.869l-.29 5.996s10.743-3.79 10.52.93c-.213 4.543-1.395 18.912-1.395 18.912z" fill="#3b434f"/><path fill-rule="evenodd" d="M266.893 274.333h1.494c3.087 4.193 4.343 10.637 5.973 16.214.505 1.728.015 4.751-.427 5.973-1.617 4.476-6.697 4.395-10.88 6.4-1.123.538-1.958 1.468-3.413 1.707-.948-.836-2.093-1-2.56-2.347-1.152-1.587.333-2.578 1.493-3.2 2.107-1.13 8.608-2.243 9.387-4.267.963-1.095.323-4.39 0-5.546-.827-2.962-1.223-5.435-2.347-8.107-.746-1.775-2.056-3.646-1.28-5.76.644-.276 2.034-.59 2.56-1.067z" fill="#3b434f"/><path d="M207.8 241.48h5.973a5.973 5.973 0 110 11.947H207.8a5.973 5.973 0 110-11.947zM305.08 241.48h5.973a5.973 5.973 0 110 11.947h-5.973a5.973 5.973 0 110-11.947z" fill="#3b434f"/><path d="M310.627 269.64c5.89 0 10.666 4.776 10.666 10.667 0 5.89-4.775 10.666-10.666 10.666s-10.667-4.775-10.667-10.666 4.776-10.667 10.667-10.667zM207.373 269.64c5.891 0 10.667 4.776 10.667 10.667 0 5.89-4.776 10.666-10.667 10.666-5.89 0-10.666-4.775-10.666-10.666s4.775-10.667 10.666-10.667z" fill="#edf1f1"/><path d="M286.327 226.44s25.545-14.604 43.793 1.487l4.827.748s-6.183-22.497-51.2-7.869L285 225m1 0s25.987-14.926 43.12 3.927l8.827-.252s-11.009-24.032-56.2-8.869L286 226M231.438 226.526s-25.459-14.476-43.646 1.472l-4.811.742s6.162-22.298 51.029-7.8l-1.25 4.157m-.996 0s-25.9-14.794-42.976 3.893l-8.797-.25s10.972-23.82 56.012-8.79l-4.239 6.139" fill="#3b434f"/><path d="M167 278s-43.056-16.929-48.822-42.51c-5.765-25.58-.832-41.682 6.318-46.95 0 0-3.074-39.382 11.732-52.074 0 0 6.68-28.595 40.613-37.561 0 0 52.69-55.577 148.01-17.073 0 0 23.477 22.702 37.625 30.92.402.234.797.456 1.183.665 13.977 7.574 27.158 23.345 29.783 53.78 0 0-.263 27.238 13.538 45.245 0 0 15.276 47.422-56.858 64.024l-2.708-65.732s-33.371-11.466-37.002-41.829c0 0-48.754 15.366-79.42-.854 0 0-19.043-5.742-19.856 2.561 0 0-6.378 34.351-40.612 43.537L167 278z" fill="#3b434f"/></svg>