<svg xmlns="http://www.w3.org/2000/svg" height="512" width="512"><path d="M112 504s-10.302-90.311 78.44-100.387h37.973V386.12s26.712 11.473 53.76 1.28l.854 16.213H327.4S404.673 411.328 400 504H112z" fill="#fff"/><path d="M399.262 505.587H114.746h-5.518l1.377-23.53c2.69-45.942 38.887-81.004 80.31-81.004h31.525v4.694h-29.01c-39.924 0-74.81 33.748-77.403 77.97l-.956 16.323h283.44l-.53-16.323c-2.593-44.222-37.48-77.97-77.403-77.97h-38.831v-4.694h41.092c41.424 0 77.621 35.062 80.31 81.004l1.378 23.53h-5.265z" fill="#3b434f"/><path d="M232.68 384.146v26.315c0 13.656 11.08 24.726 24.747 24.726s24.746-11.07 24.746-24.726V384.69a83.426 83.426 0 004.267-1.425v27.376c0 16.149-13.085 29.24-29.227 29.24-16.141 0-29.226-13.091-29.226-29.24v-28.186a83.846 83.846 0 004.693 1.692zM227.773 434.76a2.773 2.773 0 012.774 2.773v41.814a2.773 2.773 0 11-5.547 0v-41.814a2.773 2.773 0 012.773-2.773zM286.013 434.333A2.987 2.987 0 01289 437.32v26.027a2.987 2.987 0 11-5.973 0V437.32a2.987 2.987 0 012.986-2.987z" fill="#3b434f"/><path d="M227.773 479.133c.825 0 1.494.669 1.494 1.494v10.666a1.493 1.493 0 11-2.987 0v-10.666c0-.825.669-1.494 1.493-1.494zM286.227 463.347c.824 0 1.493.668 1.493 1.493v10.667a1.493 1.493 0 11-2.987 0V464.84c0-.825.669-1.493 1.494-1.493z" fill="#3b434f"/><path d="M211.766 373.646l-27.024 6.205s-33.093 7.496-11.076 29.8c22.016 22.303 78.64 26.242 78.64 26.242s-14.97-7.09-21.333-17.066l-2.133-35.84-17.074-9.34z" fill="#f5f3ef"/><path fill-rule="evenodd" d="M253.16 438.027c-1.677 2.122-48.827.663-81.493-27.734-23.653-20.56 11.946-32.426 11.946-32.426l26.027-5.974 22.613 11.52 1.707 34.56c9.52 14.927 21.9 16.637 19.2 20.054zm-23.467-18.347l-2.56-36.267-13.653-7.68-26.027 6.4s-31.525 6.465-11.52 25.174c21.59 20.19 61.529 25.609 65.707 25.173 4.33-.451-2.427 2.126-11.947-12.8z" fill="#3b434f"/><path d="M303.06 374.651l27.039 6.224s33.113 7.519 11.083 29.889c-22.03 22.37-78.688 26.321-78.688 26.321s14.98-7.112 21.346-17.118l2.135-35.947 17.084-9.369z" fill="#f5f3ef"/><path fill-rule="evenodd" d="M261.64 438.798c1.678 2.129 48.856.665 81.542-27.816 23.667-20.623-11.954-32.524-11.954-32.524l-26.042-5.991-22.627 11.554-1.707 34.664c-9.525 14.97-21.913 16.686-19.212 20.113zm23.48-18.402l2.562-36.375 13.662-7.703 26.042 6.42s31.543 6.483 11.527 25.248c-21.602 20.251-61.565 25.686-65.746 25.249-4.333-.453 2.429 2.132 11.954-12.839z" fill="#3b434f"/><path d="M259.215 116.467c53.078 0 94.972 49.6 93.61 109.198l-1.448 63.341c-1.283 56.146-42.532 100.527-92.162 100.527-49.631 0-90.88-44.38-92.163-100.527l-1.447-63.341c-1.363-59.597 40.532-109.198 93.61-109.198z" fill="#fff"/><path fill-rule="evenodd" d="M357.09 223.701l-1.518 65.915c-1.344 58.427-44.566 104.61-96.57 104.61-52.006 0-95.227-46.183-96.572-104.61l-1.517-65.915c-1.427-62.018 42.471-113.634 98.088-113.634s99.516 51.616 98.088 113.634zm-98.302-106.808c-52.352 0-93.674 49.214-92.33 108.345l1.428 62.847c1.266 55.708 41.95 99.742 90.902 99.742 48.953 0 89.637-44.034 90.903-99.742l1.428-62.847c1.343-59.131-39.978-108.345-92.33-108.345z" fill="#3b434f"/><path opacity=".059" fill-rule="evenodd" d="M354.427 234.653l-4.267 69.974s-18.95 80.77-92.16 90.334v.119c-.144-.018-.283-.041-.427-.06-.143.019-.282.042-.426.06v-.119c-73.21-9.563-92.16-90.334-92.16-90.334l-4.267-69.974c18.998 84.327 34.987 89.6 34.987 89.6-3.236-25.57 23.04-23.04 23.04-23.04 16.014 2.705 28.762 4.013 38.826 4.501 10.065-.488 22.813-1.796 38.827-4.5 0 0 26.276-2.532 23.04 23.04 0 0 15.989-5.274 34.987-89.6zm-47.444 98.273c-1.242-15.041-10.312-13.766-10.312-13.766-16.125 4.745-28.782 7.38-38.671 8.72v-.098c-9.82-1.329-22.388-3.943-38.4-8.649 0 0-9.007-1.265-10.24 13.654 0 0-3.617 14.946 8.533 21.333l15.36 16.213s10.497 3.327 10.24-9.386c0 0-1.068-9.482 5.12-11.094H258v.281h9.453c6.232 1.625 5.156 11.185 5.156 11.185-.258 12.819 10.312 9.464 10.312 9.464l15.469-16.347c12.235-6.44 8.593-21.51 8.593-21.51z" fill="#3b434f"/><path d="M305.08 327.326c-7.755 6.734-25.272 13.14-45.653 13.14-20.382 0-37.898-6.406-45.654-13.14 0 0-.793-2.183.371-3.348 1.186-1.185 3.043-.927 3.043-.927 7.747 6.738 21.85 12.296 42.24 12.296 20.389 0 34.493-5.558 42.24-12.296 0 0 1.895-.704 2.815.216 1.773 1.773.598 4.059.598 4.059zM245.347 350.707h27.306v4.266h-27.306v-4.266z" fill="#3b434f"/><path d="M160.807 233.313c-.012 0-1.047-.826-3.003-1.442a14.109 14.109 0 00-3.578-.623 14.539 14.539 0 00-2.181.067c-.758.08-1.54.226-2.327.452-3.15.906-6.365 3.108-8.253 7.652-.948 2.272-1.573 5.13-1.738 8.707a43.67 43.67 0 00-.036 2.819c.018.986.067 2.018.149 3.1a76.36 76.36 0 00.898 7.095c-.01-.003-.41 7.77 2.368 16.7 2.613 8.733 8.886 19.46 20.467 22.524-1.332-22.179-1.373-44.774-2.766-67.05z" fill="#fff"/><path d="M162.128 234.207s-20.177-6.251-19.466 14.491c0 0 3.003 30.077 4.308 32.85 0 0 7.924 17.511 21 18.287 12.782.759 0 0 0 0l.16 5.645s-22.985-2.947-27.424-29.435l-3.504-24.062s-2.72-31.845 23.67-23.748c25.708 7.888 0 0 0 0l1.256 5.972" fill="#3b434f"/><path d="M155.468 275.995s-1.129.853-2.099.853c-.97 0-2.085-.853-2.085-.853l-2.082-20.983s2.872-10.333 15.063-4.873l.289 6s-10.696-3.793-10.475.93c.213 4.547 1.39 18.926 1.39 18.926z" fill="#3b434f"/><path d="M356.813 233.362c.012 0 1.053-.826 3.017-1.441.982-.307 2.202-.56 3.593-.622a14.683 14.683 0 012.191.066c.76.08 1.546.226 2.337.452 3.165.905 6.393 3.106 8.29 7.647.951 2.27 1.58 5.127 1.745 8.7.042.894.055 1.833.036 2.818a54.18 54.18 0 01-.15 3.098 75.937 75.937 0 01-.901 7.09c.01-.003.412 7.765-2.38 16.69-2.623 8.726-8.923 19.445-20.556 22.508 1.338-22.164 1.38-44.744 2.778-67.006z" fill="#fff"/><path d="M355.483 234.256s20.264-6.248 19.551 14.48c0 0-3.017 30.057-4.327 32.828 0 0-7.959 17.5-21.093 18.275-12.837.758 0 0 0 0l-.16 5.641s23.086-2.945 27.545-29.415l3.519-24.046s2.732-31.823-23.773-23.732c-25.822 7.883 0 0 0 0l-1.262 5.969" fill="#3b434f"/><path d="M362.171 276.015s1.134.853 2.109.853c.974 0 2.094-.853 2.094-.853l2.092-20.969s-2.886-10.326-15.13-4.869l-.29 5.996s10.743-3.79 10.52.93c-.213 4.543-1.395 18.912-1.395 18.912z" fill="#3b434f"/><path fill-rule="evenodd" d="M266.893 274.333h1.494c3.087 4.193 4.343 10.637 5.973 16.214.505 1.728.015 4.751-.427 5.973-1.617 4.476-6.697 4.395-10.88 6.4-1.123.538-1.958 1.468-3.413 1.707-.948-.836-2.093-1-2.56-2.347-1.152-1.587.333-2.578 1.493-3.2 2.107-1.13 8.608-2.243 9.387-4.267.963-1.095.323-4.39 0-5.546-.827-2.962-1.223-5.435-2.347-8.107-.746-1.775-2.056-3.646-1.28-5.76.644-.276 2.034-.59 2.56-1.067z" fill="#3b434f"/><path d="M204.813 244.21h15.36c2.121 0 3.84 2.064 3.84 4.609s-1.719 4.608-3.84 4.608h-15.36c-2.12 0-3.84-2.063-3.84-4.608 0-2.545 1.72-4.608 3.84-4.608zM298.68 243.187h15.36c2.12 0 3.84 2.063 3.84 4.608 0 2.545-1.72 4.608-3.84 4.608h-15.36c-2.12 0-3.84-2.063-3.84-4.608 0-2.545 1.72-4.608 3.84-4.608z" fill="#3b434f"/><path opacity=".122" d="M211.64 269.64c8.247 0 14.933.473 14.933 9.813 0 9.634-6.686 9.814-14.933 9.814s-14.933-1.755-14.933-9.814c0-9.413 6.686-9.813 14.933-9.813zM310.627 269.64c8.247 0 14.933.473 14.933 9.813 0 9.634-6.686 9.814-14.933 9.814-8.248 0-14.934-1.755-14.934-9.814 0-9.413 6.686-9.813 14.934-9.813z"/><path fill-rule="evenodd" d="M351.94 228.88c-.577 4.93-1.084 10.962-2.15 16.356-3.188 16.128-17.047 31.071-40.71 32.774-23.664 1.703-43.804-10.21-44.984-26.608-.2-2.78-.736-5.9-1.147-8.934-3.349-1.857-6.8-1.86-10.354-.013-.416 3.102-.971 6.304-1.176 9.151-1.184 16.453-21.387 28.405-45.126 26.697-23.738-1.709-37.64-16.701-40.838-32.883-1.07-5.411-1.578-11.464-2.157-16.41l-3.489-.251.49-6.81.852.062 21.588 1.553 18.223 1.312 18.257 1.313 28.437 2.047c1.961.248 3.265 1.089 4.105 2.345 4.084 1.787 8.05 1.794 11.899.02.832-1.336 2.153-2.235 4.187-2.493l28.347-2.04 18.2-1.309 18.166-1.307 21.52-1.548.849-.061.488 6.786-3.477.25zm-111.92 7.357l-55.732-4.01c-7.289-.629-9.873 7.563-10.322 13.806-.947 13.161 13.718 24.942 32.756 26.312 19.038 1.37 35.239-8.19 36.186-21.351.45-6.243 2.488-10.099-2.888-14.757zm101.285 9.61c-.448-6.223-3.023-14.387-10.29-13.76l-55.556 3.996c-5.36 4.643-3.327 8.486-2.879 14.708.944 13.119 17.094 22.646 36.072 21.28 18.978-1.365 33.597-13.106 32.653-26.225z" fill="#3b444f"/><path d="M163.75 229.533s3.293-51.396 35.01-74.24c0 0 45.797 31.154 117.838 0 0 0 31.865 14.514 36.718 74.24h1.71s9.124-68.413-14.519-95.573c0 0-5.823-20.8-36.717-35.84l-11.1 6.827s-7.459-9.127-27.325-20.48c0 0-14.693 6.546-22.202 17.92l-11.954-7.68s-16.705 7.646-26.471 21.333l-17.932 2.56-9.393 17.067s-22.42 18.063-15.373 92.16l1.71 1.706z" fill="#9ea0a4"/><path fill-rule="evenodd" d="M358.44 229.533l-8.11-.426c-4.854-59.727-33.732-70.4-33.732-70.4-72.04 31.153-117.837-.427-117.837-.427-27.703 23.633-32.023 71.68-32.023 71.68l-7.258-2.133c-7.048-74.097 15.373-93.44 15.373-93.44l10.246-18.774 18.786-2.56c9.766-13.686 27.75-22.186 27.75-22.186l11.152 7.253c7.508-11.373 23.04-17.067 23.04-17.067 19.866 11.354 27.306 20.054 27.306 20.054l11.51-6.4c30.894 15.04 39.278 38.826 39.278 38.826 23.642 27.16 14.519 96 14.519 96zm-20.08-94.293s-3.666-18.667-34.56-33.707l-11.52 6.827s-7.44-9.127-27.307-20.48c0 0-13.398 6.973-20.906 18.347l-12.8-8.107s-15.407 7.22-25.174 20.907l-17.066 2.56-8.96 16.213s-18.61 14.214-16.64 71.68l.426-.427s5.921-35.72 34.908-57.6c0 0 47.076 32.007 119.117.854 0 0 26.615 12.516 35.842 57.173 0 0 5.477-45.931-15.36-74.24z" fill="#3b434f"/><path opacity=".2" fill-rule="evenodd" d="M260.14 103.673c.627.467.316.9.18 1.483-.204.871-.445 1.733-.58 2.603-.207 1.317-.394 2.636-.448 3.935-.046 1.093-.026 2.182-.007 3.264.01.625.118 1.25.133 1.875.006.25.074.5.081.755l.046.206c.01.32.093.625.102.943l.156.866c.077.458.114.935.254 1.381l.046.342c.111.355.147.72.26 1.075l.023.21c.162.513.235 1.052.397 1.561.263.827.476 1.657.766 2.481.192.547.357 1.12.55 1.67.344.98.764 1.936 1.142 2.905.23.59.539 1.135.785 1.722.698 1.661 1.594 3.294 2.451 4.923.277.526.581 1.01.888 1.524.196.328.4.695.58 1.033.1.187.225.328.334.51.235.393.49.816.722 1.212.215.367.457.68.693 1.037.256.385.508.818.767 1.205.45.672.926 1.322 1.372 1.986.462.69.982 1.3 1.472 1.98.95 1.318 2.059 2.582 3.082 3.905.307.396.673.742.98 1.125.152.19.408.358.511.559.042.081.066.207.095.3.048.149.035.333.037.49.004.253.016.509-.028.773-.046.274-.22.575-.333.846-.09.217-.317.408-.445.514-.107.089-.152.171-.262.257a2.898 2.898 0 01-.92.503c-.325.097-.743-.194-1-.5-.447-.538-1.007-1.03-1.437-1.57-.091-.114-.193-.165-.284-.28-.496-.627-1.105-1.218-1.595-1.835-.112-.141-.234-.22-.343-.361-.38-.496-.827-.943-1.213-1.448-.97-1.267-2.014-2.49-2.89-3.767-.205-.298-.425-.534-.625-.833-1.42-2.12-2.843-4.204-3.98-6.364-.3-.568-.63-1.085-.91-1.656a86.56 86.56 0 01-2.217-4.872c-.089-.214-.154-.454-.236-.672-.373-.98-.71-1.949-1.045-2.932-.337-.991-.53-2.027-.845-3.021-.066-.21-.087-.437-.154-.652l-.028-.233c-.073-.233-.08-.48-.152-.708-.172-.546-.225-1.137-.319-1.698-.088-.53-.21-1.07-.224-1.61l-.06-.296c-.01-.35-.1-.697-.108-1.043-.015-.604-.111-1.206-.122-1.81-.014-.749-.043-1.5-.039-2.251.005-.751.067-1.485.11-2.242.118-2.052.493-4.114.989-6.239.18-.77.468-1.524.71-2.296.168-.532.43-1.045.618-1.57.05-.138.125-.22.178-.357.112-.297.26-.662.534-.857a.81.81 0 01.55-.09c.1.03.164.107.254.104zm-20.024 14.708c.454.33.419.81.43 1.216.01.421.132.84.143 1.264l.148.879c.006.237.066.462.105.694.04.238.057.478.13.712l.133.79c.072.233.08.481.152.71.222.705.306 1.454.531 2.158.239.747.413 1.52.672 2.26.34.97.672 1.946 1.041 2.91.189.493.414.954.615 1.445.154.376.3.785.475 1.152a129.423 129.423 0 002.279 4.568c.633 1.204 1.39 2.352 2.083 3.54.214.365.456.68.694 1.036.535.804 1.105 1.641 1.654 2.458.518.773 1.141 1.494 1.687 2.25.089.124.192.19.278.315.277.4.639.784.943 1.177.153.197.347.334.486.54.304.451.494 1.292.35 1.816-.252.909-1.13 1.52-1.797 1.754-.2.071-.515.199-.734.133-.345-.103-.565-.41-.766-.663-.26-.328-.564-.566-.816-.892-.466-.605-1.014-1.145-1.48-1.754-.975-1.276-1.974-2.51-2.84-3.809-2.005-3.006-3.67-6.04-4.967-9.158-.54-1.294-.973-2.629-1.407-3.945-.154-.468-.239-.97-.387-1.437-.204-.641-.294-1.302-.494-1.94l-.032-.254c-.032-.142-.08-.28-.104-.423l-.05-.364c-.076-.24-.093-.489-.134-.735-.04-.238-.102-.471-.11-.715l-.09-.471c-.017-.64-.17-1.267-.184-1.912-.003-.152-.051-.313-.055-.465-.015-.616-.076-1.234-.073-1.85.003-.702-.003-1.416.04-2.119.018-.276.066-.537.079-.814.013-.304.067-.596.107-.91.024-.186.024-.412.08-.6.057-.192.253-.501.434-.58.123-.054.361-.108.496-.071.101.028.164.107.255.104zm-15.3 3.19c.51.374.369.846.365 1.305-.005.738.07 1.475.088 2.21.015.585.165 1.167.18 1.754l.106.558c.009.325.079.744.176 1.055l.028.232c.03.18.068.357.123.533l.039.299c.131.418.172.867.305 1.281.318.993.572 2.007.92 2.998.754 2.148 1.788 4.23 2.888 6.319.36.683.807 1.318 1.17 1.997.155.289.358.524.53.804.47.765 1.014 1.529 1.524 2.288.706 1.05 1.567 2.007 2.318 3.048.263.365.595.682.85 1.034.228.312.522.547.765.855.482.611 1.09 1.193 1.6 1.801.295.352.646.636.932.975.319.38.72.683 1.034 1.048l.238.21c.32.379.768.714 1.098 1.093.141.162.308.238.45.4.464.527 1.118.954 1.594 1.486.136.152.317.255.438.39l.154.11c.164.184.42.351.587.536l.166.119c.272.302.692.54.966.845l.218.156c.35.387.906.664 1.261 1.055l.479.361c.078.086.246.16.337.26.242.267.65.476.913.73.155.15.399.254.53.398.115.127.325.212.427.324l1 .715c.79.564 1.577 1.093 2.34 1.634.363.256.812.457 1.035.777.125.18.176.44.242.637.149.444.21.97.085 1.454-.038.147-.115.247-.17.4-.088.248-.236.63-.5.863-.17.15-.35.353-.54.484-.292.202-.611.094-.968-.054l-.343-.225c-.548-.235-1.06-.739-1.61-.976-.105-.046-.216-.16-.303-.198l-.548-.372c-.201-.087-.382-.298-.609-.396-.19-.082-.384-.236-.57-.369l-.205-.146c-.183-.08-.4-.247-.57-.369l-.744-.531c-.266-.116-.562-.382-.818-.565-.211-.151-.498-.314-.658-.49l-.436-.311c-.303-.217-.603-.431-.867-.658l-.436-.312c-.21-.232-.575-.408-.784-.638l-.295-.21c-.153-.169-.416-.316-.567-.483l-.256-.183c-.116-.128-.323-.262-.439-.39-.068-.05-.136-.098-.205-.147-.4-.444-.987-.78-1.378-1.217l-.367-.3c-.505-.57-1.19-1.026-1.677-1.586-.133-.152-.282-.22-.413-.372-.45-.524-1.026-.99-1.46-1.508-.072-.085-.142-.105-.213-.19-.205-.246-.47-.5-.668-.748-.092-.116-.192-.164-.284-.28-.687-.867-1.494-1.64-2.16-2.51-1.178-1.54-2.407-3.044-3.339-4.63-.21-.36-.462-.66-.667-1.018-.363-.635-.758-1.26-1.099-1.907a84.188 84.188 0 01-1.517-3.057c-.342-.718-.612-1.491-.892-2.224-.23-.6-.45-1.185-.66-1.787-.209-.592-.358-1.208-.552-1.806-.197-.608-.278-1.253-.47-1.864-.073-.232-.066-.525-.138-.756-.18-.57-.222-1.19-.32-1.776-.42-2.502-.463-5.064-.279-7.665.042-.6.167-1.17.266-1.783.045-.28.137-.635.446-.842.1-.066.413-.118.528-.087.094.025.168.106.255.104z" fill="#3b434f"/></svg>