<svg xmlns="http://www.w3.org/2000/svg" height="512" width="512"><path d="M290.573 109.213c-8.457-8.045-3.84-29.013-3.84-29.013s.38-1.529 1.274-4.031c5.14-14.393 27.264-61.004 91.74-34.369l-16.214 4.267s52.054 2.846 52.054 87.04v198.826s-39.827 35.407-89.6-23.04C276.213 250.447 290 163 290 163s9.03-45.742.573-53.787z" fill="#3b444f"/><path d="M256.867 94.707c59.146 0 107.093 47.947 107.093 107.093v22.187c0 59.146-47.947 107.093-107.093 107.093s-107.094-47.947-107.094-107.093V201.8c0-59.146 47.948-107.093 107.094-107.093z" fill="#3b444f"/><path d="M117.36 502s-6.615-89.988 78.08-98.387h37.973V386.12s26.712 11.473 53.76 1.28l.854 16.213H332.4s75.985 2.985 72.533 99.24L117.36 502z" fill="#fff"/><path d="M404.675 505.587H120.16h-5.518l1.377-23.53c2.69-45.942 38.887-81.004 80.31-81.004h31.525v4.694h-29.01c-39.923 0-74.81 33.748-77.402 77.97l-.957 16.323h283.44l-.53-16.323c-2.593-44.222-37.48-77.97-77.403-77.97H287.16v-4.694h41.093c41.423 0 77.62 35.062 80.31 81.004l1.377 23.53h-5.265z" fill="#3b434f"/><path d="M258.72 453.96c-22.857 0-41.387-18.53-41.387-41.387 0-4 .579-7.861 1.637-11.52h12.017v4.694h-8.748a37.067 37.067 0 00-.639 6.826c0 20.501 16.62 37.12 37.12 37.12 20.5 0 37.12-16.619 37.12-37.12 0-2.333-.224-4.613-.639-6.826h-8.748v-4.694h12.017a41.377 41.377 0 011.637 11.52c0 22.858-18.53 41.387-41.387 41.387z" fill="#3b434f"/><path d="M233.4 384.146v26.315c0 13.656 11.08 24.726 24.747 24.726s24.746-11.07 24.746-24.726V384.69a83.426 83.426 0 004.267-1.425v27.376c0 16.149-13.085 29.24-29.227 29.24-16.141 0-29.226-13.091-29.226-29.24v-28.186a83.846 83.846 0 004.693 1.692z" fill="#3b434f"/><path d="M259.007 125.427c54.03 0 95.13 47.383 92.931 101.603l-2.984 73.58c-8.455 49.955-42.895 86.02-89.57 91.057-45.53-4.785-80.645-41.115-90.324-91.057l-2.984-73.58c-2.2-54.22 38.902-101.603 92.931-101.603z" fill="#fff"/><path fill-rule="evenodd" d="M357.907 223.91l-3.177 76.88c-8.998 52.197-45.653 89.88-95.328 95.143-48.457-4.999-85.83-42.96-96.132-95.143l-3.176-76.88c-2.34-56.653 41.403-106.163 98.906-106.163 57.504 0 101.247 49.51 98.907 106.162zm-98.9-100.19c-54.03 0-95.13 47.384-92.931 101.603l2.984 73.58c9.68 49.942 44.795 86.272 90.324 91.057 46.675-5.036 81.115-41.102 89.57-91.057l2.984-73.58c2.2-54.22-38.902-101.603-92.931-101.603z" fill="#3b434f"/><path d="M305.08 327.326c-7.755 6.734-25.272 13.14-45.653 13.14-20.382 0-37.898-6.406-45.654-13.14 0 0-.793-2.183.371-3.348 1.186-1.185 3.043-.927 3.043-.927 7.747 6.738 21.85 12.296 42.24 12.296 20.389 0 34.493-5.558 42.24-12.296 0 0 1.895-.704 2.815.216 1.773 1.773.598 4.059.598 4.059zM245.347 350.707h27.306v4.266h-27.306v-4.266z" fill="#3b434f"/><path d="M160.807 233.313c-.012 0-1.047-.826-3.003-1.442a14.109 14.109 0 00-3.578-.623 14.539 14.539 0 00-2.181.067c-.758.08-1.54.226-2.327.452-3.15.906-6.365 3.108-8.253 7.652-.948 2.272-1.573 5.13-1.738 8.707a43.67 43.67 0 00-.036 2.819c.018.986.067 2.018.149 3.1a76.36 76.36 0 00.898 7.095c-.01-.003-.41 7.77 2.368 16.7 2.613 8.733 8.886 19.46 20.467 22.524-1.332-22.179-1.373-44.774-2.766-67.05z" fill="#fff"/><path d="M162.128 234.207s-20.177-6.251-19.466 14.491c0 0 3.003 30.077 4.308 32.85 0 0 7.924 17.511 21 18.287 12.782.759 0 0 0 0l.16 5.645s-22.985-2.947-27.424-29.435l-3.504-24.062s-2.72-31.845 23.67-23.748c25.708 7.888 0 0 0 0l1.256 5.972" fill="#3b434f"/><path d="M155.468 275.995s-1.129.853-2.099.853c-.97 0-2.085-.853-2.085-.853l-2.082-20.983s2.872-10.333 15.063-4.873l.289 6s-10.696-3.793-10.475.93c.213 4.547 1.39 18.926 1.39 18.926z" fill="#3b434f"/><path d="M357.813 233.362c.012 0 1.053-.826 3.017-1.441.982-.307 2.202-.56 3.593-.622a14.683 14.683 0 012.191.066c.76.08 1.546.226 2.337.452 3.165.905 6.393 3.106 8.29 7.647.951 2.27 1.58 5.127 1.745 8.7.042.894.055 1.833.036 2.818a54.18 54.18 0 01-.15 3.098 75.937 75.937 0 01-.901 7.09c.01-.003.412 7.765-2.38 16.69-2.623 8.726-8.923 19.445-20.556 22.508 1.338-22.164 1.38-44.744 2.778-67.006z" fill="#fff"/><path d="M355.483 234.256s20.264-6.248 19.551 14.48c0 0-3.017 30.057-4.327 32.828 0 0-7.959 17.5-21.093 18.275-12.837.758 0 0 0 0l-.16 5.641s23.086-2.945 27.545-29.415l3.519-24.046s2.732-31.823-23.773-23.732c-25.822 7.883 0 0 0 0l-1.262 5.969" fill="#3b434f"/><path d="M362.171 276.015s1.134.853 2.109.853c.974 0 2.094-.853 2.094-.853l2.092-20.969s-2.886-10.326-15.13-4.869l-.29 5.996s10.743-3.79 10.52.93c-.213 4.543-1.395 18.912-1.395 18.912z" fill="#3b434f"/><path fill-rule="evenodd" d="M266.893 274.333h1.494c3.087 4.193 4.343 10.637 5.973 16.214.505 1.728.015 4.751-.427 5.973-1.617 4.476-6.697 4.395-10.88 6.4-1.123.538-1.958 1.468-3.413 1.707-.948-.836-2.093-1-2.56-2.347-1.152-1.587.333-2.578 1.493-3.2 2.107-1.13 8.608-2.243 9.387-4.267.963-1.095.323-4.39 0-5.546-.827-2.962-1.223-5.435-2.347-8.107-.746-1.775-2.056-3.646-1.28-5.76.644-.276 2.034-.59 2.56-1.067z" fill="#3b434f"/><path d="M207.8 241.48h5.973a5.973 5.973 0 110 11.947H207.8a5.973 5.973 0 110-11.947zM305.08 241.48h5.973a5.973 5.973 0 110 11.947h-5.973a5.973 5.973 0 110-11.947z" fill="#3b434f"/><path d="M310.627 269.64c5.89 0 10.666 4.776 10.666 10.667 0 5.89-4.775 10.666-10.666 10.666s-10.667-4.775-10.667-10.666 4.776-10.667 10.667-10.667zM207.373 269.64c5.891 0 10.667 4.776 10.667 10.667 0 5.89-4.776 10.666-10.667 10.666-5.89 0-10.666-4.775-10.666-10.666s4.775-10.667 10.666-10.667z" fill="#edf1f1"/><path fill-rule="evenodd" d="M351.94 228.88c-.577 4.93-1.084 10.962-2.15 16.356-3.188 16.128-17.047 31.071-40.71 32.774-23.664 1.703-43.804-10.21-44.984-26.608-.2-2.78-.736-5.9-1.147-8.934-3.349-1.857-6.8-1.86-10.354-.013-.416 3.102-.971 6.304-1.176 9.151-1.184 16.453-21.387 28.405-45.126 26.697-23.738-1.709-37.64-16.701-40.838-32.883-1.07-5.411-1.578-11.464-2.157-16.41l-3.489-.251.49-6.81.852.062 21.588 1.553 18.223 1.312 18.257 1.313 28.437 2.047c1.961.248 3.265 1.089 4.105 2.345 4.084 1.787 8.05 1.794 11.899.02.832-1.336 2.153-2.235 4.187-2.493l28.347-2.04 18.2-1.309 18.166-1.307 21.52-1.548.849-.061.488 6.786-3.477.25zm-111.92 7.357l-55.732-4.01c-7.289-.629-9.873 7.563-10.322 13.806-.947 13.161 13.718 24.942 32.756 26.312 19.038 1.37 35.239-8.19 36.186-21.351.45-6.243 2.488-10.099-2.888-14.757zm101.285 9.61c-.448-6.223-3.023-14.387-10.29-13.76l-55.556 3.996c-5.36 4.643-3.327 8.486-2.879 14.708.944 13.119 17.094 22.646 36.072 21.28 18.978-1.365 33.597-13.106 32.653-26.225z" fill="#3b444f"/><path d="M167.693 167.24l31.147-39.68L227 114.333l37.973-5.973 43.52 2.56 58.454 60.587-15.787 57.173s-3.618-25.215-23.04-45.227c-18.116-18.666-29.867-23.253-29.867-23.253s-6.85 27.647-52.48 26.667c-81.843-1.758-78.208 56.364-81.066 61.44-.314.558-.427-24.32-.427-24.32l3.413-56.747z" fill="#3b434f"/></svg>