<svg xmlns="http://www.w3.org/2000/svg" height="512" width="512"><path d="M419.427 393.498c-20.395 89.209-124.79 54.271-160.427 39.45v-.095c-35.638 14.833-140.032 49.797-160.427-39.48 0 0 36.58.394 25.6-114.346 0 0-39.63-227.3 134.827-208.302v.373c174.457-18.984 134.827 208.141 134.827 208.141-10.98 114.652 25.6 114.26 25.6 114.26z" fill="#3b434f"/><path d="M116.36 502s-6.615-89.988 78.08-98.387h37.973V386.12s26.712 11.473 53.76 1.28l.854 16.213H331.4s75.985 2.985 72.533 99.24L116.36 502z" fill="#fff"/><path d="M404.675 505.587H120.16h-5.518l1.377-23.53c2.69-45.942 38.887-81.004 80.31-81.004h31.525v4.694h-29.01c-39.923 0-74.81 33.748-77.402 77.97l-.957 16.323h283.44l-.53-16.323c-2.593-44.222-37.48-77.97-77.403-77.97H287.16v-4.694h41.093c41.423 0 77.62 35.062 80.31 81.004l1.377 23.53h-5.265z" fill="#3b434f"/><path d="M257.72 453.96c-22.857 0-41.387-18.53-41.387-41.387 0-4 .579-7.861 1.637-11.52h12.017v4.694h-8.748a37.067 37.067 0 00-.639 6.826c0 20.501 16.62 37.12 37.12 37.12 20.5 0 37.12-16.619 37.12-37.12 0-2.333-.224-4.613-.639-6.826h-8.748v-4.694h12.017a41.377 41.377 0 011.637 11.52c0 22.858-18.53 41.387-41.387 41.387z" fill="#3b434f"/><path d="M233.4 384.146v26.315c0 13.656 11.08 24.726 24.747 24.726s24.746-11.07 24.746-24.726V384.69a83.426 83.426 0 004.267-1.425v27.376c0 16.149-13.085 29.24-29.227 29.24-16.141 0-29.226-13.091-29.226-29.24v-28.186a83.846 83.846 0 004.693 1.692z" fill="#3b434f"/><path d="M259.215 116.467c53.078 0 94.972 49.6 93.61 109.198l-1.448 63.341c-1.283 56.146-42.532 100.527-92.162 100.527-49.631 0-90.88-44.38-92.163-100.527l-1.447-63.341c-1.363-59.597 40.532-109.198 93.61-109.198z" fill="#fff"/><path fill-rule="evenodd" d="M357.09 223.701l-1.518 65.915c-1.344 58.427-44.566 104.61-96.57 104.61-52.006 0-95.227-46.183-96.572-104.61l-1.517-65.915c-1.427-62.018 42.471-113.634 98.088-113.634s99.516 51.616 98.088 113.634zm-98.302-106.808c-52.352 0-93.674 49.214-92.33 108.345l1.428 62.847c1.266 55.708 41.95 99.742 90.902 99.742 48.953 0 89.637-44.034 90.903-99.742l1.428-62.847c1.343-59.131-39.978-108.345-92.33-108.345z" fill="#3b434f"/><path d="M305.08 327.326c-7.755 6.734-25.272 13.14-45.653 13.14-20.382 0-37.898-6.406-45.654-13.14 0 0-.793-2.183.371-3.348 1.186-1.185 3.043-.927 3.043-.927 7.747 6.738 21.85 12.296 42.24 12.296 20.389 0 34.493-5.558 42.24-12.296 0 0 1.895-.704 2.815.216 1.773 1.773.598 4.059.598 4.059zM245.347 350.707h27.306v4.266h-27.306v-4.266z" fill="#3b434f"/><path d="M160.807 233.313c-.012 0-1.047-.826-3.003-1.442a14.109 14.109 0 00-3.578-.623 14.539 14.539 0 00-2.181.067c-.758.08-1.54.226-2.327.452-3.15.906-6.365 3.108-8.253 7.652-.948 2.272-1.573 5.13-1.738 8.707a43.67 43.67 0 00-.036 2.819c.018.986.067 2.018.149 3.1a76.36 76.36 0 00.898 7.095c-.01-.003-.41 7.77 2.368 16.7 2.613 8.733 8.886 19.46 20.467 22.524-1.332-22.179-1.373-44.774-2.766-67.05z" fill="#fff"/><path d="M162.128 234.207s-20.177-6.251-19.466 14.491c0 0 3.003 30.077 4.308 32.85 0 0 7.924 17.511 21 18.287 12.782.759 0 0 0 0l.16 5.645s-22.985-2.947-27.424-29.435l-3.504-24.062s-2.72-31.845 23.67-23.748c25.708 7.888 0 0 0 0l1.256 5.972" fill="#3b434f"/><path d="M155.468 275.995s-1.129.853-2.099.853c-.97 0-2.085-.853-2.085-.853l-2.082-20.983s2.872-10.333 15.063-4.873l.289 6s-10.696-3.793-10.475.93c.213 4.547 1.39 18.926 1.39 18.926z" fill="#3b434f"/><path d="M356.813 233.362c.012 0 1.053-.826 3.017-1.441.982-.307 2.202-.56 3.593-.622a14.683 14.683 0 012.191.066c.76.08 1.546.226 2.337.452 3.165.905 6.393 3.106 8.29 7.647.951 2.27 1.58 5.127 1.745 8.7.042.894.055 1.833.036 2.818a54.18 54.18 0 01-.15 3.098 75.937 75.937 0 01-.901 7.09c.01-.003.412 7.765-2.38 16.69-2.623 8.726-8.923 19.445-20.556 22.508 1.338-22.164 1.38-44.744 2.778-67.006z" fill="#fff"/><path d="M355.483 234.256s20.264-6.248 19.551 14.48c0 0-3.017 30.057-4.327 32.828 0 0-7.959 17.5-21.093 18.275-12.837.758 0 0 0 0l-.16 5.641s23.086-2.945 27.545-29.415l3.519-24.046s2.732-31.823-23.773-23.732c-25.822 7.883 0 0 0 0l-1.262 5.969" fill="#3b434f"/><path d="M362.171 276.015s1.134.853 2.109.853c.974 0 2.094-.853 2.094-.853l2.092-20.969s-2.886-10.326-15.13-4.869l-.29 5.996s10.743-3.79 10.52.93c-.213 4.543-1.395 18.912-1.395 18.912z" fill="#3b434f"/><path fill-rule="evenodd" d="M266.893 274.333h1.494c3.087 4.193 4.343 10.637 5.973 16.214.505 1.728.015 4.751-.427 5.973-1.617 4.476-6.697 4.395-10.88 6.4-1.123.538-1.958 1.468-3.413 1.707-.948-.836-2.093-1-2.56-2.347-1.152-1.587.333-2.578 1.493-3.2 2.107-1.13 8.608-2.243 9.387-4.267.963-1.095.323-4.39 0-5.546-.827-2.962-1.223-5.435-2.347-8.107-.746-1.775-2.056-3.646-1.28-5.76.644-.276 2.034-.59 2.56-1.067z" fill="#3b434f"/><path d="M204.813 244.21h15.36c2.121 0 3.84 2.064 3.84 4.609s-1.719 4.608-3.84 4.608h-15.36c-2.12 0-3.84-2.063-3.84-4.608 0-2.545 1.72-4.608 3.84-4.608zM298.68 243.187h15.36c2.12 0 3.84 2.063 3.84 4.608 0 2.545-1.72 4.608-3.84 4.608h-15.36c-2.12 0-3.84-2.063-3.84-4.608 0-2.545 1.72-4.608 3.84-4.608z" fill="#3b434f"/><path d="M310.627 269.64c5.89 0 10.666 4.776 10.666 10.667 0 5.89-4.775 10.666-10.666 10.666s-10.667-4.775-10.667-10.666 4.776-10.667 10.667-10.667zM207.373 269.64c5.891 0 10.667 4.776 10.667 10.667 0 5.89-4.776 10.666-10.667 10.666-5.89 0-10.666-4.775-10.666-10.666s4.775-10.667 10.666-10.667z" fill="#edf1f1"/><path fill-rule="evenodd" d="M344.333 230.387v31.573c0 7.716-7.526 19.755-19.79 20.445-1.802-.086-38.236.035-38.236.035-16.379 0-19.627-19.627-19.627-19.627V241.48h-15.36v21.333s-3.248 19.627-19.627 19.627c0 0-36.434-.121-38.236-.035-12.264-.69-19.79-12.73-19.79-20.445v-31.573h-13.654v-8.534h79.36s11.947 1.93 11.947 10.24h15.36c0-8.31 11.947-10.24 11.947-10.24h79.36v8.534h-13.654zm-101.546 4.266c0-3.041-3.414-3.413-3.414-3.413H182.2v29.867c0 9.306 12.8 12.8 12.8 12.8h34.987c12.037 0 12.8-12.8 12.8-12.8v-26.454zm93.013-3.413h-57.173s-3.414.372-3.414 3.413v26.454s.763 12.8 12.8 12.8H323s12.8-3.494 12.8-12.8V231.24zm-11.947 51.2c.233-.005.46-.022.69-.035.193.01-.001.02-.69.035zm-130.396-.035c.23.013.457.03.69.035-.689-.014-.883-.026-.69-.035zM259 163.01V68.53c.285-.001.568-.01.853-.01 59.853 0 108.374 48.52 108.374 108.373v34.83a95.216 95.216 0 000 3.57S267.577 188.073 259 163.01zm-109.227 52.283a95.216 95.216 0 000-3.57v-34.83c0-59.853 48.52-108.373 108.374-108.373.285 0 .568.009.853.01v94.48c-8.578 25.063-109.227 52.283-109.227 52.283z" fill="#3b434f"/></svg>