<svg xmlns="http://www.w3.org/2000/svg" height="512" width="512">
  <path
    d="M419.427 393.498c-20.395 89.209-124.79 54.271-160.427 39.45v-.095c-35.638 14.833-140.032 49.797-160.427-39.48 0 0 36.58.394 25.6-114.346 0 0-39.63-227.3 134.827-208.302v.373c174.457-18.984 134.827 208.141 134.827 208.141-10.98 114.652 25.6 114.26 25.6 114.26z"
    fill="#3b434f" />
  <path
    d="M114.36 502s-6.615-89.988 78.08-98.387h37.973V386.12s26.712 11.473 53.76 1.28l.854 16.213H329.4s75.985 2.985 72.533 99.24L114.36 502z"
    fill="#fff" />
  <path fill-rule="evenodd"
    d="M401.262 505.587H116.746h-5.518l1.377-23.53c2.69-45.942 38.887-81.004 80.31-81.004h28.484c-1.848 1.529-3.202 3.114-4.176 4.694H195.43c-39.924 0-74.81 33.748-77.403 77.97l-.956 16.323h283.44l-.53-16.323c-2.593-44.222-37.48-77.97-77.403-77.97h-21.812c-.834-1.568-2.02-3.154-3.676-4.694h27.75c41.423 0 77.62 35.062 80.31 81.004l1.377 23.53h-5.265zm-112.612-99.84h-1.49v-4.694h1.656c-.099 1.22-.163 2.758-.166 4.694zm-60.01-4.694h1.773v4.694h-1.533c-.023-1.993-.114-3.523-.24-4.694z"
    fill="#3b434f" />
  <path
    d="M272.227 466.333a2.987 2.987 0 110 5.974 2.987 2.987 0 010-5.974zM272.227 485.96a2.987 2.987 0 110 5.973 2.987 2.987 0 010-5.973z"
    fill="#3b434f" />
  <path fill-rule="evenodd"
    d="M306.787 426.227l-21.76 32.426c-5.92-18.347-23.04-11.52-23.04-11.52v54.189c0 1.413-1.338 2.558-2.987 2.558-1.65 0-2.987-1.145-2.987-2.558v-54.19c-.138-.055-17.123-6.751-23.011 11.521l-21.737-32.426s-8.408-21.377 17.048-30.72v-9.814h4.814v30.884c.618 5.316 4.278 20.464 25.873 25.436 21.618-4.972 25.283-20.12 25.901-25.436v-30.884h4.819v9.814c25.484 9.343 17.067 30.72 17.067 30.72zm-74.038 2.87c-1.16-1.314-2.831-4.577-2.831-4.577s-1.605-5.34-1.605-7.68v-10.822c-.363-4.881-1.278-4.965-1.278-4.965-18.994 9.356-10.655 23.894-10.655 23.894l15.77 24.746c6.157-10.434 12.785-8.533 12.785-8.533-5.852-2.983-9.69-7.612-12.186-12.063zM291 401.053s-.917.084-1.28 4.965v10.822c0 2.34-1.606 7.68-1.606 7.68s-1.673 3.263-2.835 4.577c-2.499 4.451-6.34 9.08-12.199 12.063 0 0 6.635-1.901 12.8 8.533l15.787-24.746s8.347-14.538-10.667-23.894z"
    fill="#3b434f" />
  <path
    d="M259.215 116.467c53.078 0 94.972 49.6 93.61 109.198l-1.448 63.341c-1.283 56.146-42.532 100.527-92.162 100.527-49.631 0-90.88-44.38-92.163-100.527l-1.447-63.341c-1.363-59.597 40.532-109.198 93.61-109.198z"
    fill="#fff" />
  <path fill-rule="evenodd"
    d="M357.09 223.701l-1.518 65.915c-1.344 58.427-44.566 104.61-96.57 104.61-52.006 0-95.227-46.183-96.572-104.61l-1.517-65.915c-1.427-62.018 42.471-113.634 98.088-113.634s99.516 51.616 98.088 113.634zm-98.302-106.808c-52.352 0-93.674 49.214-92.33 108.345l1.428 62.847c1.266 55.708 41.95 99.742 90.902 99.742 48.953 0 89.637-44.034 90.903-99.742l1.428-62.847c1.343-59.131-39.978-108.345-92.33-108.345z"
    fill="#3b434f" />
  <path
    d="M305.08 327.326c-7.755 6.734-25.272 13.14-45.653 13.14-20.382 0-37.898-6.406-45.654-13.14 0 0-.793-2.183.371-3.348 1.186-1.185 3.043-.927 3.043-.927 7.747 6.738 21.85 12.296 42.24 12.296 20.389 0 34.493-5.558 42.24-12.296 0 0 1.895-.704 2.815.216 1.773 1.773.598 4.059.598 4.059zM245.347 350.707h27.306v4.266h-27.306v-4.266zM212.067 238.067a8.533 8.533 0 110 17.066 8.533 8.533 0 010-17.066zM306.787 238.067a8.533 8.533 0 110 17.066 8.533 8.533 0 010-17.066z"
    fill="#3b434f" />
  <path
    d="M211.64 269.64c8.247 0 14.933.473 14.933 9.813 0 9.634-6.686 9.814-14.933 9.814s-14.933-1.755-14.933-9.814c0-9.413 6.686-9.813 14.933-9.813zM310.627 269.64c8.247 0 14.933.473 14.933 9.813 0 9.634-6.686 9.814-14.933 9.814-8.248 0-14.934-1.755-14.934-9.814 0-9.413 6.686-9.813 14.934-9.813z"
    fill="#f5f3ef" />
  <path
    d="M282 222.61l2.471 3.14 1.534 1.945S313.155 212.703 332 230l2.01.985s-4.643-25.076-45.282-10.409A124.438 124.438 0 00282 222.61zM235 222.628l-2.471 3.132-1.534 1.942s-27.15-14.961-45.995 2.3l-2.01.983s4.643-25.024 45.282-10.387c2.144.58 4.382 1.25 6.728 2.03zM350.307 186.013h17.92v42.667h-17.92v-42.667z"
    fill="#3b434f" />
  <path
    d="M153.778 224.743s18.848-36.29 54.915-30.517c0 0 1.427 8.266 9.183 17.152 0 0 8.49-20.552 34.674-26.342 20.8-4.6 40.546-21.18 40.546-21.18s3.071 32.95 43.6 42.126c0 0 35.511 4.391 32.934-15.231-2.577-19.622-22.284-105.027-116.65-92.099-94.366 12.93-116.529 47.198-100.04 125.232"
    fill="#3b444f" />
  <path
    d="M159.807 233.313c-.012 0-1.047-.826-3.003-1.442a14.109 14.109 0 00-3.578-.623 14.539 14.539 0 00-2.181.067c-.758.08-1.54.226-2.327.452-3.15.906-6.365 3.108-8.253 7.652-.948 2.272-1.573 5.13-1.738 8.707a43.67 43.67 0 00-.036 2.819c.018.986.067 2.018.149 3.1a76.36 76.36 0 00.898 7.095c-.01-.003-.41 7.77 2.368 16.7 2.613 8.733 8.886 19.46 20.467 22.524-1.332-22.179-1.373-44.774-2.766-67.05z"
    fill="#f7fbfb" />
  <path
    d="M162.128 234.207s-20.177-6.251-19.466 14.491c0 0 3.003 30.077 4.308 32.85 0 0 7.924 17.511 21 18.287 12.782.759 0 0 0 0l.16 5.645s-22.985-2.947-27.424-29.435l-3.504-24.062s-2.72-31.845 23.67-23.748c25.708 7.888 0 0 0 0l1.256 5.972"
    fill="#3b434f" />
  <path
    d="M155.468 275.995s-1.129.853-2.099.853c-.97 0-2.085-.853-2.085-.853l-2.082-20.983s2.872-10.333 15.063-4.873l.289 6s-10.696-3.793-10.475.93c.213 4.547 1.39 18.926 1.39 18.926z"
    fill="#3b434f" />
  <path
    d="M357.813 233.362c.012 0 1.053-.826 3.017-1.441.982-.307 2.202-.56 3.593-.622a14.683 14.683 0 012.191.066c.76.08 1.546.226 2.337.452 3.165.905 6.393 3.106 8.29 7.647.951 2.27 1.58 5.127 1.745 8.7.042.894.055 1.833.036 2.818a54.18 54.18 0 01-.15 3.098 75.937 75.937 0 01-.901 7.09c.01-.003.412 7.765-2.38 16.69-2.623 8.726-8.923 19.445-20.556 22.508 1.338-22.164 1.38-44.744 2.778-67.006z"
    fill="#f7fbfb" />
  <path
    d="M355.483 234.256s20.264-6.248 19.551 14.48c0 0-3.017 30.057-4.327 32.828 0 0-7.959 17.5-21.093 18.275-12.837.758 0 0 0 0l-.16 5.641s23.086-2.945 27.545-29.415l3.519-24.046s2.732-31.823-23.773-23.732c-25.822 7.883 0 0 0 0l-1.262 5.969"
    fill="#3b434f" />
  <path
    d="M362.171 276.015s1.134.853 2.109.853c.974 0 2.094-.853 2.094-.853l2.092-20.969s-2.886-10.326-15.13-4.869l-.29 5.996s10.743-3.79 10.52.93c-.213 4.543-1.395 18.912-1.395 18.912z"
    fill="#3b434f" />
  <path fill-rule="evenodd"
    d="M266.893 274.333h1.494c3.087 4.193 4.343 10.637 5.973 16.214.505 1.728.015 4.751-.427 5.973-1.617 4.476-6.697 4.395-10.88 6.4-1.123.538-1.958 1.468-3.413 1.707-.948-.836-2.093-1-2.56-2.347-1.152-1.587.333-2.578 1.493-3.2 2.107-1.13 8.608-2.243 9.387-4.267.963-1.095.323-4.39 0-5.546-.827-2.962-1.223-5.435-2.347-8.107-.746-1.775-2.056-3.646-1.28-5.76.644-.276 2.034-.59 2.56-1.067z"
    fill="#3b434f" />
</svg>